{
    "asset" : {
        "generator" : "Khronos glTF Blender I/O v1.7.33",
        "version" : "2.0"
    },
    "extensionsUsed" : [
        "KHR_materials_clearcoat"
    ],
    "scene" : 0,
    "scenes" : [
        {
            "name" : "Scene",
            "nodes" : [
                3
            ]
        }
    ],
    "nodes" : [
        {
            "mesh" : 0,
            "name" : "Object_2"
        },
        {
            "mesh" : 1,
            "name" : "Object_3"
        },
        {
            "children" : [
                0,
                1
            ],
            "name" : "Utility_Robot.obj.cleaner"
        },
        {
            "children" : [
                2
            ],
            "name" : "Sketchfab_model",
            "rotation" : [
                -0.7071068286895752,
                0,
                0,
                0.7071068286895752
            ],
            "scale" : [
                0.026730772107839584,
                0.026730772107839584,
                0.026730772107839584
            ]
        }
    ],
    "materials" : [
        {
            "emissiveFactor" : [
                0.44999998807907104,
                0.44999998807907104,
                0.44999998807907104
            ],
            "emissiveTexture" : {
                "index" : 0
            },
            "extensions" : {
                "KHR_materials_clearcoat" : {
                    "clearcoatFactor" : 1,
                    "clearcoatRoughnessFactor" : 0.03999999910593033
                }
            },
            "name" : "Box001_mtl",
            "normalTexture" : {
                "index" : 1
            },
            "pbrMetallicRoughness" : {
                "baseColorTexture" : {
                    "index" : 2
                },
                "metallicFactor" : 0.08708079159259796,
                "roughnessFactor" : 0.4000000059604645
            }
        }
    ],
    "meshes" : [
        {
            "name" : "Object_0",
            "primitives" : [
                {
                    "attributes" : {
                        "POSITION" : 0,
                        "NORMAL" : 1,
                        "TEXCOORD_0" : 2
                    },
                    "indices" : 3,
                    "material" : 0
                }
            ]
        },
        {
            "name" : "Object_1",
            "primitives" : [
                {
                    "attributes" : {
                        "POSITION" : 4,
                        "NORMAL" : 5,
                        "TEXCOORD_0" : 6
                    },
                    "indices" : 7,
                    "material" : 0
                }
            ]
        }
    ],
    "textures" : [
        {
            "sampler" : 0,
            "source" : 0
        },
        {
            "sampler" : 0,
            "source" : 1
        },
        {
            "sampler" : 0,
            "source" : 2
        }
    ],
    "images" : [
        {
            "bufferView" : 4,
            "mimeType" : "image/png",
            "name" : "Box001_mtl_emissive"
        },
        {
            "bufferView" : 5,
            "mimeType" : "image/png",
            "name" : "Box001_mtl_normal"
        },
        {
            "bufferView" : 6,
            "mimeType" : "image/png",
            "name" : "Box001_mtl_baseColor"
        }
    ],
    "accessors" : [
        {
            "bufferView" : 0,
            "componentType" : 5126,
            "count" : 3467,
            "max" : [
                22.877700805664062,
                21.06719970703125,
                33.914798736572266
            ],
            "min" : [
                -22.877700805664062,
                -34.20970153808594,
                -15.434399604797363
            ],
            "type" : "VEC3"
        },
        {
            "bufferView" : 1,
            "componentType" : 5126,
            "count" : 3467,
            "type" : "VEC3"
        },
        {
            "bufferView" : 2,
            "componentType" : 5126,
            "count" : 3467,
            "type" : "VEC2"
        },
        {
            "bufferView" : 3,
            "componentType" : 5123,
            "count" : 7770,
            "type" : "SCALAR"
        },
        {
            "bufferView" : 7,
            "componentType" : 5126,
            "count" : 7902,
            "max" : [
                21.04330062866211,
                21.06719970703125,
                33.914798736572266
            ],
            "min" : [
                -21.04330062866211,
                -26.95560073852539,
                -15.434399604797363
            ],
            "type" : "VEC3"
        },
        {
            "bufferView" : 8,
            "componentType" : 5126,
            "count" : 7902,
            "type" : "VEC3"
        },
        {
            "bufferView" : 9,
            "componentType" : 5126,
            "count" : 7902,
            "type" : "VEC2"
        },
        {
            "bufferView" : 10,
            "componentType" : 5123,
            "count" : 8106,
            "type" : "SCALAR"
        }
    ],
    "bufferViews" : [
        {
            "buffer" : 0,
            "byteLength" : 41604,
            "byteOffset" : 0
        },
        {
            "buffer" : 0,
            "byteLength" : 41604,
            "byteOffset" : 41604
        },
        {
            "buffer" : 0,
            "byteLength" : 27736,
            "byteOffset" : 83208
        },
        {
            "buffer" : 0,
            "byteLength" : 15540,
            "byteOffset" : 110944
        },
        {
            "buffer" : 0,
            "byteLength" : 24273,
            "byteOffset" : 126484
        },
        {
            "buffer" : 0,
            "byteLength" : 564530,
            "byteOffset" : 150760
        },
        {
            "buffer" : 0,
            "byteLength" : 698474,
            "byteOffset" : 715292
        },
        {
            "buffer" : 0,
            "byteLength" : 94824,
            "byteOffset" : 1413768
        },
        {
            "buffer" : 0,
            "byteLength" : 94824,
            "byteOffset" : 1508592
        },
        {
            "buffer" : 0,
            "byteLength" : 63216,
            "byteOffset" : 1603416
        },
        {
            "buffer" : 0,
            "byteLength" : 16212,
            "byteOffset" : 1666632
        }
    ],
    "samplers" : [
        {
            "magFilter" : 9729,
            "minFilter" : 9987
        }
    ],
    "buffers" : [
        {
            "byteLength" : 1682844,
            "uri" : "data:application/octet-stream;base64,"
        }
    ]
}
