{
	"asset":{
		"generator":"Khronos glTF Blender I/O v3.6.27",
		"version":"2.0"
	},
	"scene":0,
	"scenes":[
		{
			"name":"Scene",
			"nodes":[
				0
			]
		}
	],
	"nodes":[
		{
			"mesh":0,
			"name":"Sphere",
			"scale":[
				0.3499999940395355,
				0.3499999940395355,
				0.3499999940395355
			],
			"translation":[
				0,
				-0.43157705664634705,
				0
			]
		}
	],
	"materials":[
		{
			"doubleSided":true,
			"name":"Material.001",
			"pbrMetallicRoughness":{
				"baseColorFactor":[
					0.3505556285381317,
					0.04810399189591408,
					0.01088059600442648,
					1
				],
				"metallicFactor":0,
				"roughnessFactor":0.5
			}
		},
		{
			"doubleSided":true,
			"name":"Material.002",
			"pbrMetallicRoughness":{
				"baseColorFactor":[
					0.800000011920929,
					0.800000011920929,
					0.800000011920929,
					1
				],
				"metallicFactor":0,
				"roughnessFactor":0.5
			}
		}
	],
	"meshes":[
		{
			"name":"Sphere",
			"primitives":[
				{
					"attributes":{
						"POSITION":0,
						"NORMAL":1,
						"TEXCOORD_0":2
					},
					"indices":3,
					"material":0
				},
				{
					"attributes":{
						"POSITION":4,
						"NORMAL":5,
						"TEXCOORD_0":6
					},
					"indices":7,
					"material":1
				}
			]
		}
	],
	"accessors":[
		{
			"bufferView":0,
			"componentType":5126,
			"count":3838,
			"max":[
				1.3671875,
				2.7305471897125244,
				1.0669952630996704
			],
			"min":[
				-1.3671875,
				-1.75,
				-0.998835027217865
			],
			"type":"VEC3"
		},
		{
			"bufferView":1,
			"componentType":5126,
			"count":3838,
			"type":"VEC3"
		},
		{
			"bufferView":2,
			"componentType":5126,
			"count":3838,
			"type":"VEC2"
		},
		{
			"bufferView":3,
			"componentType":5123,
			"count":5640,
			"type":"SCALAR"
		},
		{
			"bufferView":4,
			"componentType":5126,
			"count":240,
			"max":[
				0.625,
				2.4615063667297363,
				0.7376053333282471
			],
			"min":[
				-0.625,
				1.9889343976974487,
				0.39570045471191406
			],
			"type":"VEC3"
		},
		{
			"bufferView":5,
			"componentType":5126,
			"count":240,
			"type":"VEC3"
		},
		{
			"bufferView":6,
			"componentType":5126,
			"count":240,
			"type":"VEC2"
		},
		{
			"bufferView":7,
			"componentType":5123,
			"count":336,
			"type":"SCALAR"
		}
	],
	"bufferViews":[
		{
			"buffer":0,
			"byteLength":46056,
			"byteOffset":0,
			"target":34962
		},
		{
			"buffer":0,
			"byteLength":46056,
			"byteOffset":46056,
			"target":34962
		},
		{
			"buffer":0,
			"byteLength":30704,
			"byteOffset":92112,
			"target":34962
		},
		{
			"buffer":0,
			"byteLength":11280,
			"byteOffset":122816,
			"target":34963
		},
		{
			"buffer":0,
			"byteLength":2880,
			"byteOffset":134096,
			"target":34962
		},
		{
			"buffer":0,
			"byteLength":2880,
			"byteOffset":136976,
			"target":34962
		},
		{
			"buffer":0,
			"byteLength":1920,
			"byteOffset":139856,
			"target":34962
		},
		{
			"buffer":0,
			"byteLength":672,
			"byteOffset":141776,
			"target":34963
		}
	],
	"buffers":[
		{
			"byteLength":142448,
			"uri":"data:application/octet-stream;base64,"
		}
	]
}
