{
	"asset":{
		"generator":"Khronos glTF Blender I/O v3.6.27",
		"version":"2.0"
	},
	"scene":0,
	"scenes":[
		{
			"name":"Scene",
			"nodes":[
				2
			]
		}
	],
	"nodes":[
		{
			"mesh":0,
			"name":"Cube",
			"rotation":[
				0,
				0,
				0.7071068286895752,
				0.7071068286895752
			],
			"scale":[
				0.7223895192146301,
				0.8009297847747803,
				1.087777853012085
			],
			"translation":[
				-0.36205387115478516,
				0,
				0
			]
		},
		{
			"mesh":1,
			"name":"Cylinder.001",
			"rotation":[
				0.5,
				0.5,
				0.5000000596046448,
				0.5000001192092896
			],
			"scale":[
				0.41955336928367615,
				0.11552342772483826,
				0.6336950063705444
			],
			"translation":[
				-2.9451210498809814,
				0,
				1.4316835403442383
			]
		},
		{
			"children":[
				0,
				1
			],
			"mesh":2,
			"name":"Cylinder",
			"rotation":[
				0,
				0,
				-0.7071068286895752,
				0.7071068286895752
			],
			"scale":[
				0.3657568395137787,
				0.5524405241012573,
				0.3657568395137787
			],
			"translation":[
				0,
				-0.5758667588233948,
				0
			]
		}
	],
	"materials":[
		{
			"doubleSided":true,
			"name":"Material.001",
			"pbrMetallicRoughness":{
				"baseColorFactor":[
					0.08001166582107544,
					0.08001166582107544,
					0.08001166582107544,
					1
				],
				"metallicFactor":0,
				"roughnessFactor":0.5
			}
		},
		{
			"doubleSided":true,
			"name":"Material.004",
			"pbrMetallicRoughness":{
				"baseColorFactor":[
					0.8000000715255737,
					0.5079706311225891,
					0.018566593527793884,
					1
				],
				"metallicFactor":0,
				"roughnessFactor":0.5
			}
		},
		{
			"doubleSided":true,
			"name":"Material.002",
			"pbrMetallicRoughness":{
				"baseColorFactor":[
					0.8000000715255737,
					0.002757442183792591,
					0.001864246092736721,
					1
				],
				"metallicFactor":0,
				"roughnessFactor":0.5
			}
		},
		{
			"doubleSided":true,
			"name":"Material.003",
			"pbrMetallicRoughness":{
				"baseColorFactor":[
					0,
					0,
					0,
					1
				],
				"metallicFactor":0,
				"roughnessFactor":0.5
			}
		}
	],
	"meshes":[
		{
			"name":"Cube.001",
			"primitives":[
				{
					"attributes":{
						"POSITION":0,
						"NORMAL":1,
						"TEXCOORD_0":2
					},
					"indices":3,
					"material":0
				},
				{
					"attributes":{
						"POSITION":4,
						"NORMAL":5,
						"TEXCOORD_0":6
					},
					"indices":7,
					"material":1
				}
			]
		},
		{
			"name":"Cylinder.001",
			"primitives":[
				{
					"attributes":{
						"POSITION":8,
						"NORMAL":9,
						"TEXCOORD_0":10
					},
					"indices":11,
					"material":2
				}
			]
		},
		{
			"name":"Cylinder",
			"primitives":[
				{
					"attributes":{
						"POSITION":12,
						"NORMAL":13,
						"TEXCOORD_0":14
					},
					"indices":11,
					"material":3
				}
			]
		}
	],
	"accessors":[
		{
			"bufferView":0,
			"componentType":5126,
			"count":2668,
			"max":[
				1.566188931465149,
				3.778585910797119,
				1.343016505241394
			],
			"min":[
				-1.566188931465149,
				-1,
				-1
			],
			"type":"VEC3"
		},
		{
			"bufferView":1,
			"componentType":5126,
			"count":2668,
			"type":"VEC3"
		},
		{
			"bufferView":2,
			"componentType":5126,
			"count":2668,
			"type":"VEC2"
		},
		{
			"bufferView":3,
			"componentType":5123,
			"count":4068,
			"type":"SCALAR"
		},
		{
			"bufferView":4,
			"componentType":5126,
			"count":264,
			"max":[
				1.566188931465149,
				2.5419507026672363,
				1.562995433807373
			],
			"min":[
				-1.566188931465149,
				2.139414072036743,
				1.343016505241394
			],
			"type":"VEC3"
		},
		{
			"bufferView":5,
			"componentType":5126,
			"count":264,
			"type":"VEC3"
		},
		{
			"bufferView":6,
			"componentType":5126,
			"count":264,
			"type":"VEC2"
		},
		{
			"bufferView":7,
			"componentType":5123,
			"count":396,
			"type":"SCALAR"
		},
		{
			"bufferView":8,
			"componentType":5126,
			"count":192,
			"max":[
				1,
				1,
				1
			],
			"min":[
				-1,
				-1,
				-1
			],
			"type":"VEC3"
		},
		{
			"bufferView":9,
			"componentType":5126,
			"count":192,
			"type":"VEC3"
		},
		{
			"bufferView":10,
			"componentType":5126,
			"count":192,
			"type":"VEC2"
		},
		{
			"bufferView":11,
			"componentType":5123,
			"count":372,
			"type":"SCALAR"
		},
		{
			"bufferView":12,
			"componentType":5126,
			"count":192,
			"max":[
				1,
				1,
				1
			],
			"min":[
				-0.9999998807907104,
				-1,
				-1
			],
			"type":"VEC3"
		},
		{
			"bufferView":13,
			"componentType":5126,
			"count":192,
			"type":"VEC3"
		},
		{
			"bufferView":14,
			"componentType":5126,
			"count":192,
			"type":"VEC2"
		}
	],
	"bufferViews":[
		{
			"buffer":0,
			"byteLength":32016,
			"byteOffset":0,
			"target":34962
		},
		{
			"buffer":0,
			"byteLength":32016,
			"byteOffset":32016,
			"target":34962
		},
		{
			"buffer":0,
			"byteLength":21344,
			"byteOffset":64032,
			"target":34962
		},
		{
			"buffer":0,
			"byteLength":8136,
			"byteOffset":85376,
			"target":34963
		},
		{
			"buffer":0,
			"byteLength":3168,
			"byteOffset":93512,
			"target":34962
		},
		{
			"buffer":0,
			"byteLength":3168,
			"byteOffset":96680,
			"target":34962
		},
		{
			"buffer":0,
			"byteLength":2112,
			"byteOffset":99848,
			"target":34962
		},
		{
			"buffer":0,
			"byteLength":792,
			"byteOffset":101960,
			"target":34963
		},
		{
			"buffer":0,
			"byteLength":2304,
			"byteOffset":102752,
			"target":34962
		},
		{
			"buffer":0,
			"byteLength":2304,
			"byteOffset":105056,
			"target":34962
		},
		{
			"buffer":0,
			"byteLength":1536,
			"byteOffset":107360,
			"target":34962
		},
		{
			"buffer":0,
			"byteLength":744,
			"byteOffset":108896,
			"target":34963
		},
		{
			"buffer":0,
			"byteLength":2304,
			"byteOffset":109640,
			"target":34962
		},
		{
			"buffer":0,
			"byteLength":2304,
			"byteOffset":111944,
			"target":34962
		},
		{
			"buffer":0,
			"byteLength":1536,
			"byteOffset":114248,
			"target":34962
		}
	],
	"buffers":[
		{
			"byteLength":115784,
			"uri":"data:application/octet-stream;base64,"
		}
	]
}
