{
    "asset" : {
        "generator" : "Khronos glTF Blender I/O v1.7.33",
        "version" : "2.0"
    },
    "scene" : 0,
    "scenes" : [
        {
            "name" : "Scene",
            "nodes" : [
                13
            ]
        }
    ],
    "nodes" : [
        {
            "name" : "Ore_13_Harvester_6_Autobot_x0",
            "translation" : [
                -0.011465225368738174,
                -1.5065083503723145,
                0.006985320709645748
            ]
        },
        {
            "children" : [
                0
            ],
            "name" : "lvl6",
            "translation" : [
                0.011465225368738174,
                1.5065083503723145,
                -0.006985320709645748
            ]
        },
        {
            "name" : "Faction_J_02",
            "rotation" : [
                5.098215183352295e-09,
                -7.105427357601002e-15,
                7.722745472485748e-17,
                1
            ],
            "translation" : [
                -6.916127826689378e-13,
                2.880474805831909,
                3.2947548769118873e-12
            ]
        },
        {
            "children" : [
                2
            ],
            "name" : "bn_root01_01",
            "rotation" : [
                0.7071068286895752,
                5.35561284209507e-09,
                5.35561328618428e-09,
                0.7071067094802856
            ],
            "translation" : [
                0.001347236568108201,
                -4.565715789794922e-05,
                0
            ]
        },
        {
            "children" : [
                3
            ],
            "name" : "Ore_13_Harvester_Rig_00"
        },
        {
            "children" : [
                4
            ],
            "name" : "_rootJoint",
            "rotation" : [
                -0.7071068286895752,
                0,
                0,
                0.7071068286895752
            ]
        },
        {
            "mesh" : 0,
            "name" : "Object_8",
            "skin" : 0
        },
        {
            "children" : [
                1,
                6,
                5
            ],
            "name" : "Object_6"
        },
        {
            "children" : [
                7
            ],
            "name" : "main"
        },
        {
            "children" : [
                8
            ],
            "name" : "bld_ore13harvester_autobot_lvl6"
        },
        {
            "children" : [
                9
            ],
            "name" : "RootNode"
        },
        {
            "children" : [
                10
            ],
            "name" : "Object_2"
        },
        {
            "children" : [
                11
            ],
            "name" : "main.fbx",
            "rotation" : [
                0.7071068286895752,
                0,
                0,
                0.7071068286895752
            ],
            "scale" : [
                0.009999999776482582,
                0.009999999776482582,
                0.009999999776482582
            ]
        },
        {
            "children" : [
                12
            ],
            "name" : "Sketchfab_model",
            "rotation" : [
                -0.7071068286895752,
                0,
                0,
                0.7071068286895752
            ],
            "scale" : [
                53.295318603515625,
                53.295318603515625,
                53.295318603515625
            ]
        }
    ],
    "animations" : [
        {
            "channels" : [
                {
                    "sampler" : 0,
                    "target" : {
                        "node" : 2,
                        "path" : "translation"
                    }
                }
            ],
            "name" : "Idle",
            "samplers" : [
                {
                    "input" : 7,
                    "interpolation" : "LINEAR",
                    "output" : 8
                }
            ]
        }
    ],
    "materials" : [
        {
            "doubleSided" : true,
            "name" : "Ore_13_Harvester_6_autobot",
            "pbrMetallicRoughness" : {
                "baseColorTexture" : {
                    "index" : 0
                },
                "metallicFactor" : 0,
                "roughnessFactor" : 0.9577051401138306
            }
        }
    ],
    "meshes" : [
        {
            "name" : "Ore_13_Harvester_6_Autobot_x0_Ore_13_Harvester_6_autobot_0",
            "primitives" : [
                {
                    "attributes" : {
                        "POSITION" : 0,
                        "NORMAL" : 1,
                        "TEXCOORD_0" : 2,
                        "JOINTS_0" : 3,
                        "WEIGHTS_0" : 4
                    },
                    "indices" : 5,
                    "material" : 0
                }
            ]
        }
    ],
    "textures" : [
        {
            "sampler" : 0,
            "source" : 0
        }
    ],
    "images" : [
        {
            "bufferView" : 6,
            "mimeType" : "image/png",
            "name" : "Ore_13_Harvester_6_autobot_baseColor"
        }
    ],
    "skins" : [
        {
            "inverseBindMatrices" : 6,
            "joints" : [
                5,
                4,
                3,
                2
            ],
            "name" : "Object_6"
        }
    ],
    "accessors" : [
        {
            "bufferView" : 0,
            "componentType" : 5126,
            "count" : 1316,
            "max" : [
                0.9532545208930969,
                1.6066251993179321,
                0.9435087442398071
            ],
            "min" : [
                -0.9410062432289124,
                0.00013170388410799205,
                -0.9507523775100708
            ],
            "type" : "VEC3"
        },
        {
            "bufferView" : 1,
            "componentType" : 5126,
            "count" : 1316,
            "type" : "VEC3"
        },
        {
            "bufferView" : 2,
            "componentType" : 5126,
            "count" : 1316,
            "type" : "VEC2"
        },
        {
            "bufferView" : 3,
            "componentType" : 5121,
            "count" : 1316,
            "type" : "VEC4"
        },
        {
            "bufferView" : 4,
            "componentType" : 5126,
            "count" : 1316,
            "type" : "VEC4"
        },
        {
            "bufferView" : 5,
            "componentType" : 5123,
            "count" : 2232,
            "type" : "SCALAR"
        },
        {
            "bufferView" : 7,
            "componentType" : 5126,
            "count" : 4,
            "type" : "MAT4"
        },
        {
            "bufferView" : 8,
            "componentType" : 5126,
            "count" : 77,
            "max" : [
                3.2000000029802322
            ],
            "min" : [
                0.033333336313565574
            ],
            "type" : "SCALAR"
        },
        {
            "bufferView" : 9,
            "componentType" : 5126,
            "count" : 77,
            "type" : "VEC3"
        }
    ],
    "bufferViews" : [
        {
            "buffer" : 0,
            "byteLength" : 15792,
            "byteOffset" : 0
        },
        {
            "buffer" : 0,
            "byteLength" : 15792,
            "byteOffset" : 15792
        },
        {
            "buffer" : 0,
            "byteLength" : 10528,
            "byteOffset" : 31584
        },
        {
            "buffer" : 0,
            "byteLength" : 5264,
            "byteOffset" : 42112
        },
        {
            "buffer" : 0,
            "byteLength" : 21056,
            "byteOffset" : 47376
        },
        {
            "buffer" : 0,
            "byteLength" : 4464,
            "byteOffset" : 68432
        },
        {
            "buffer" : 0,
            "byteLength" : 168770,
            "byteOffset" : 72896
        },
        {
            "buffer" : 0,
            "byteLength" : 256,
            "byteOffset" : 241668
        },
        {
            "buffer" : 0,
            "byteLength" : 308,
            "byteOffset" : 241924
        },
        {
            "buffer" : 0,
            "byteLength" : 924,
            "byteOffset" : 242232
        }
    ],
    "samplers" : [
        {
            "magFilter" : 9729,
            "minFilter" : 9987
        }
    ],
    "buffers" : [
        {
            "byteLength" : 243156,
            "uri" : "data:application/octet-stream;base64,"
        }
    ]
}
