{
  "accessors": [
    {
      "bufferView": 3,
      "componentType": 5126,
      "count": 1316,
      "max": [
        1.788627028465271,
        3.0145702362060547,
        1.7703403234481812
      ],
      "min": [
        -1.765645146369934,
        0.00024712085723876953,
        -1.783931851387024
      ],
      "type": "VEC3"
    },
    {
      "bufferView": 3,
      "byteOffset": 15792,
      "componentType": 5126,
      "count": 1316,
      "max": [
        0.9998739957809448,
        0.9998739957809448,
        0.999748170375824
      ],
      "min": [
        -0.9998739957809448,
        -0.9998739957809448,
        -0.999748170375824
      ],
      "type": "VEC3"
    },
    {
      "bufferView": 2,
      "componentType": 5126,
      "count": 1316,
      "max": [
        0.9929146766662598,
        0.996741533279419
      ],
      "min": [
        -0.9588128328323364,
        0.005570173263549805
      ],
      "type": "VEC2"
    },
    {
      "bufferView": 1,
      "componentType": 5125,
      "count": 2232,
      "type": "SCALAR"
    },
    {
      "bufferView": 5,
      "componentType": 5126,
      "count": 4,
      "max": [
        1.0,
        0.0,
        0.0,
        0.0,
        0.0,
        1.0,
        0.0,
        0.0,
        0.0,
        0.0,
        1.0,
        0.0,
        0.0,
        0.0,
        0.0,
        1.0
      ],
      "min": [
        1.0,
        0.0,
        0.0,
        0.0,
        0.0,
        1.0,
        0.0,
        0.0,
        0.0,
        0.0,
        1.0,
        0.0,
        -0.001347236568108201,
        -2.8803601264953613,
        -4.562377944239415e-05,
        1.0
      ],
      "type": "MAT4"
    },
    {
      "bufferView": 0,
      "componentType": 5123,
      "count": 1316,
      "type": "VEC4"
    },
    {
      "bufferView": 4,
      "componentType": 5126,
      "count": 1316,
      "max": [
        1.0,
        0.0,
        0.0,
        0.0
      ],
      "min": [
        1.0,
        0.0,
        0.0,
        0.0
      ],
      "type": "VEC4"
    },
    {
      "bufferView": 6,
      "componentType": 5126,
      "count": 97,
      "max": [
        3.2333333492279053
      ],
      "min": [
        0.03333333507180214
      ],
      "type": "SCALAR"
    },
    {
      "bufferView": 7,
      "componentType": 5126,
      "count": 97,
      "max": [
        0.002262871479615569,
        2.880474090576172,
        0.005004190374165773
      ],
      "min": [
        -0.00200927653349936,
        1.3770861625671387,
        -0.002031258074566722
      ],
      "type": "VEC3"
    }
  ],
  "animations": [
    {
      "channels": [
        {
          "sampler": 0,
          "target": {
            "node": 11,
            "path": "translation"
          }
        }
      ],
      "name": "Idle",
      "samplers": [
        {
          "input": 7,
          "interpolation": "LINEAR",
          "output": 8
        }
      ]
    }
  ],
  "asset": {
    "extras": {
      "author": "OrangeSauceu (https://sketchfab.com/orangesauceu)",
      "license": "CC-BY-4.0 (http://creativecommons.org/licenses/by/4.0/)",
      "source": "https://sketchfab.com/3d-models/earth-wars-ore-13-harvester-metroplex-5b8e4399f8c144ee8fb3bc2c562eb397",
      "title": "Earth Wars Ore-13 Harvester (Metroplex)"
    },
    "generator": "Sketchfab-15.37.0",
    "version": "2.0"
  },
  "bufferViews": [
    {
      "buffer": 0,
      "byteLength": 10528,
      "byteStride": 8,
      "name": "shortBufferViews",
      "target": 34962
    },
    {
      "buffer": 0,
      "byteLength": 8928,
      "byteOffset": 10528,
      "name": "floatBufferViews",
      "target": 34963
    },
    {
      "buffer": 0,
      "byteLength": 10528,
      "byteOffset": 19456,
      "byteStride": 8,
      "name": "floatBufferViews",
      "target": 34962
    },
    {
      "buffer": 0,
      "byteLength": 31584,
      "byteOffset": 29984,
      "byteStride": 12,
      "name": "floatBufferViews",
      "target": 34962
    },
    {
      "buffer": 0,
      "byteLength": 21056,
      "byteOffset": 61568,
      "byteStride": 16,
      "name": "floatBufferViews",
      "target": 34962
    },
    {
      "buffer": 0,
      "byteLength": 256,
      "byteOffset": 82624,
      "name": "floatBufferViews"
    },
    {
      "buffer": 0,
      "byteLength": 388,
      "byteOffset": 82880,
      "name": "floatBufferViews"
    },
    {
      "buffer": 0,
      "byteLength": 1164,
      "byteOffset": 83268,
      "byteStride": 12,
      "name": "floatBufferViews"
    }
  ],
  "buffers": [
    {
      "byteLength": 84432,
      "uri": "scene.bin"
    }
  ],
  "images": [
    {
      "uri": "textures/Ore_13_Harvester_6_autobot_baseColor.png"
    }
  ],
  "materials": [
    {
      "doubleSided": true,
      "name": "Ore_13_Harvester_6_autobot",
      "pbrMetallicRoughness": {
        "baseColorTexture": {
          "index": 0
        },
        "metallicFactor": 0.0,
        "roughnessFactor": 0.9577051494623774
      }
    }
  ],
  "meshes": [
    {
      "name": "Ore_13_Harvester_6_Autobot_x0_Ore_13_Harvester_6_autobot_0",
      "primitives": [
        {
          "attributes": {
            "JOINTS_0": 5,
            "NORMAL": 1,
            "POSITION": 0,
            "TEXCOORD_0": 2,
            "WEIGHTS_0": 6
          },
          "indices": 3,
          "material": 0,
          "mode": 4
        }
      ]
    }
  ],
  "nodes": [
    {
      "children": [
        1
      ],
      "matrix": [
        1.0,
        0.0,
        0.0,
        0.0,
        0.0,
        2.220446049250313e-16,
        -1.0,
        0.0,
        0.0,
        1.0,
        2.220446049250313e-16,
        0.0,
        0.0,
        0.0,
        0.0,
        1.0
      ],
      "name": "Sketchfab_model"
    },
    {
      "children": [
        2
      ],
      "matrix": [
        0.009999999776482582,
        0.0,
        0.0,
        0.0,
        0.0,
        0.0,
        0.009999999776482582,
        0.0,
        0.0,
        -0.009999999776482582,
        0.0,
        0.0,
        0.0,
        0.0,
        0.0,
        1.0
      ],
      "name": "main.fbx"
    },
    {
      "children": [
        3
      ],
      "name": "Object_2"
    },
    {
      "children": [
        4
      ],
      "name": "RootNode"
    },
    {
      "children": [
        5
      ],
      "name": "bld_ore13harvester_autobot_lvl6"
    },
    {
      "children": [
        6
      ],
      "name": "main"
    },
    {
      "children": [
        7,
        8,
        12
      ],
      "name": "Object_6"
    },
    {
      "children": [
        9
      ],
      "name": "_rootJoint"
    },
    {
      "mesh": 0,
      "name": "Object_8",
      "skin": 0
    },
    {
      "children": [
        10
      ],
      "name": "Ore_13_Harvester_Rig_00"
    },
    {
      "children": [
        11
      ],
      "name": "bn_root01_01",
      "translation": [
        0.001347236568108201,
        0.0,
        4.562377944239415e-05
      ]
    },
    {
      "name": "Faction_J_02",
      "translation": [
        0.0,
        2.880474090576172,
        0.0
      ]
    },
    {
      "children": [
        13
      ],
      "name": "lvl6",
      "translation": [
        0.011465225368738174,
        1.5065083503723145,
        -0.006985320709645748
      ]
    },
    {
      "name": "Ore_13_Harvester_6_Autobot_x0",
      "translation": [
        -0.011465225368738174,
        -1.5065083503723145,
        0.006985320709645748
      ]
    }
  ],
  "samplers": [
    {
      "magFilter": 9729,
      "minFilter": 9987,
      "wrapS": 10497,
      "wrapT": 10497
    }
  ],
  "scene": 0,
  "scenes": [
    {
      "name": "Sketchfab_Scene",
      "nodes": [
        0
      ]
    }
  ],
  "skins": [
    {
      "inverseBindMatrices": 4,
      "joints": [
        7,
        9,
        10,
        11
      ],
      "skeleton": 7
    }
  ],
  "textures": [
    {
      "sampler": 0,
      "source": 0
    }
  ]
}
