{
    "asset" : {
        "generator" : "Khronos glTF Blender I/O v1.7.33",
        "version" : "2.0"
    },
    "scene" : 0,
    "scenes" : [
        {
            "name" : "Scene",
            "nodes" : [
                0
            ]
        }
    ],
    "nodes" : [
        {
            "mesh" : 0,
            "name" : "Birch_10"
        }
    ],
    "materials" : [
        {
            "doubleSided" : true,
            "name" : "Birch_Bark",
            "pbrMetallicRoughness" : {
                "baseColorTexture" : {
                    "index" : 0
                },
                "roughnessFactor" : 0.5527864098548889
            }
        },
        {
            "alphaCutoff" : 0.5,
            "alphaMode" : "MASK",
            "doubleSided" : true,
            "name" : "Birch_Leaves",
            "pbrMetallicRoughness" : {
                "baseColorTexture" : {
                    "index" : 1
                },
                "roughnessFactor" : 0.5527864098548889
            }
        }
    ],
    "meshes" : [
        {
            "name" : "Cylinder.022",
            "primitives" : [
                {
                    "attributes" : {
                        "POSITION" : 0,
                        "NORMAL" : 1,
                        "TEXCOORD_0" : 2
                    },
                    "indices" : 3,
                    "material" : 0
                },
                {
                    "attributes" : {
                        "POSITION" : 4,
                        "NORMAL" : 5,
                        "TEXCOORD_0" : 6
                    },
                    "indices" : 7,
                    "material" : 1
                }
            ]
        }
    ],
    "textures" : [
        {
            "sampler" : 0,
            "source" : 0
        },
        {
            "sampler" : 0,
            "source" : 1
        }
    ],
    "images" : [
        {
            "bufferView" : 4,
            "mimeType" : "image/png",
            "name" : "Birch_Bark"
        },
        {
            "bufferView" : 9,
            "mimeType" : "image/png",
            "name" : "Birch_Leaves_Green"
        }
    ],
    "accessors" : [
        {
            "bufferView" : 0,
            "componentType" : 5126,
            "count" : 867,
            "max" : [
                1.4905157089233398,
                10.072539329528809,
                1.6436240673065186
            ],
            "min" : [
                -2.7546257972717285,
                -0.002992333145812154,
                -1.4345437288284302
            ],
            "type" : "VEC3"
        },
        {
            "bufferView" : 1,
            "componentType" : 5126,
            "count" : 867,
            "type" : "VEC3"
        },
        {
            "bufferView" : 2,
            "componentType" : 5126,
            "count" : 867,
            "type" : "VEC2"
        },
        {
            "bufferView" : 3,
            "componentType" : 5123,
            "count" : 3552,
            "type" : "SCALAR"
        },
        {
            "bufferView" : 5,
            "componentType" : 5126,
            "count" : 765,
            "max" : [
                2.136352062225342,
                10.22900676727295,
                2.5521836280822754
            ],
            "min" : [
                -3.2245073318481445,
                4.233572959899902,
                -2.1893556118011475
            ],
            "type" : "VEC3"
        },
        {
            "bufferView" : 6,
            "componentType" : 5126,
            "count" : 765,
            "type" : "VEC3"
        },
        {
            "bufferView" : 7,
            "componentType" : 5126,
            "count" : 765,
            "type" : "VEC2"
        },
        {
            "bufferView" : 8,
            "componentType" : 5123,
            "count" : 3240,
            "type" : "SCALAR"
        }
    ],
    "bufferViews" : [
        {
            "buffer" : 0,
            "byteLength" : 10404,
            "byteOffset" : 0
        },
        {
            "buffer" : 0,
            "byteLength" : 10404,
            "byteOffset" : 10404
        },
        {
            "buffer" : 0,
            "byteLength" : 6936,
            "byteOffset" : 20808
        },
        {
            "buffer" : 0,
            "byteLength" : 7104,
            "byteOffset" : 27744
        },
        {
            "buffer" : 0,
            "byteLength" : 207364,
            "byteOffset" : 34848
        },
        {
            "buffer" : 0,
            "byteLength" : 9180,
            "byteOffset" : 242212
        },
        {
            "buffer" : 0,
            "byteLength" : 9180,
            "byteOffset" : 251392
        },
        {
            "buffer" : 0,
            "byteLength" : 6120,
            "byteOffset" : 260572
        },
        {
            "buffer" : 0,
            "byteLength" : 6480,
            "byteOffset" : 266692
        },
        {
            "buffer" : 0,
            "byteLength" : 125641,
            "byteOffset" : 273172
        }
    ],
    "samplers" : [
        {
            "magFilter" : 9729,
            "minFilter" : 9987
        }
    ],
    "buffers" : [
        {
            "byteLength" : 398816,
            "uri" : "data:application/octet-stream;base64,"
        }
    ]
}
