{
    "asset" : {
        "generator" : "Khronos glTF Blender I/O v1.7.33",
        "version" : "2.0"
    },
    "scene" : 0,
    "scenes" : [
        {
            "name" : "Scene",
            "nodes" : [
                0
            ]
        }
    ],
    "nodes" : [
        {
            "mesh" : 0,
            "name" : "Birch_2"
        }
    ],
    "materials" : [
        {
            "doubleSided" : true,
            "name" : "Birch_Bark",
            "pbrMetallicRoughness" : {
                "baseColorTexture" : {
                    "index" : 0
                },
                "roughnessFactor" : 0.5527864098548889
            }
        },
        {
            "alphaCutoff" : 0.5,
            "alphaMode" : "MASK",
            "doubleSided" : true,
            "name" : "Birch_Leaves",
            "pbrMetallicRoughness" : {
                "baseColorTexture" : {
                    "index" : 1
                },
                "roughnessFactor" : 0.5527864098548889
            }
        }
    ],
    "meshes" : [
        {
            "name" : "Cylinder.034",
            "primitives" : [
                {
                    "attributes" : {
                        "POSITION" : 0,
                        "NORMAL" : 1,
                        "TEXCOORD_0" : 2
                    },
                    "indices" : 3,
                    "material" : 0
                },
                {
                    "attributes" : {
                        "POSITION" : 4,
                        "NORMAL" : 5,
                        "TEXCOORD_0" : 6
                    },
                    "indices" : 7,
                    "material" : 1
                }
            ]
        }
    ],
    "textures" : [
        {
            "sampler" : 0,
            "source" : 0
        },
        {
            "sampler" : 0,
            "source" : 1
        }
    ],
    "images" : [
        {
            "bufferView" : 4,
            "mimeType" : "image/png",
            "name" : "Birch_Bark"
        },
        {
            "bufferView" : 9,
            "mimeType" : "image/png",
            "name" : "Birch_Leaves_Yellow"
        }
    ],
    "accessors" : [
        {
            "bufferView" : 0,
            "componentType" : 5126,
            "count" : 406,
            "max" : [
                3.1102702617645264,
                8.74194049835205,
                0.4333825707435608
            ],
            "min" : [
                -0.7471774816513062,
                -0.0016893353313207626,
                -1.4639631509780884
            ],
            "type" : "VEC3"
        },
        {
            "bufferView" : 1,
            "componentType" : 5126,
            "count" : 406,
            "type" : "VEC3"
        },
        {
            "bufferView" : 2,
            "componentType" : 5126,
            "count" : 406,
            "type" : "VEC2"
        },
        {
            "bufferView" : 3,
            "componentType" : 5123,
            "count" : 1620,
            "type" : "SCALAR"
        },
        {
            "bufferView" : 5,
            "componentType" : 5126,
            "count" : 408,
            "max" : [
                3.944094657897949,
                8.94159984588623,
                1.342220664024353
            ],
            "min" : [
                -1.1706199645996094,
                4.632635116577148,
                -1.7168481349945068
            ],
            "type" : "VEC3"
        },
        {
            "bufferView" : 6,
            "componentType" : 5126,
            "count" : 408,
            "type" : "VEC3"
        },
        {
            "bufferView" : 7,
            "componentType" : 5126,
            "count" : 408,
            "type" : "VEC2"
        },
        {
            "bufferView" : 8,
            "componentType" : 5123,
            "count" : 1728,
            "type" : "SCALAR"
        }
    ],
    "bufferViews" : [
        {
            "buffer" : 0,
            "byteLength" : 4872,
            "byteOffset" : 0
        },
        {
            "buffer" : 0,
            "byteLength" : 4872,
            "byteOffset" : 4872
        },
        {
            "buffer" : 0,
            "byteLength" : 3248,
            "byteOffset" : 9744
        },
        {
            "buffer" : 0,
            "byteLength" : 3240,
            "byteOffset" : 12992
        },
        {
            "buffer" : 0,
            "byteLength" : 207364,
            "byteOffset" : 16232
        },
        {
            "buffer" : 0,
            "byteLength" : 4896,
            "byteOffset" : 223596
        },
        {
            "buffer" : 0,
            "byteLength" : 4896,
            "byteOffset" : 228492
        },
        {
            "buffer" : 0,
            "byteLength" : 3264,
            "byteOffset" : 233388
        },
        {
            "buffer" : 0,
            "byteLength" : 3456,
            "byteOffset" : 236652
        },
        {
            "buffer" : 0,
            "byteLength" : 133833,
            "byteOffset" : 240108
        }
    ],
    "samplers" : [
        {
            "magFilter" : 9729,
            "minFilter" : 9987
        }
    ],
    "buffers" : [
        {
            "byteLength" : 373944,
            "uri" : "data:application/octet-stream;base64,"
        }
    ]
}
