{
    "asset" : {
        "generator" : "Khronos glTF Blender I/O v1.7.33",
        "version" : "2.0"
    },
    "scene" : 0,
    "scenes" : [
        {
            "name" : "Scene",
            "nodes" : [
                0
            ]
        }
    ],
    "nodes" : [
        {
            "mesh" : 0,
            "name" : "Tree_10"
        }
    ],
    "materials" : [
        {
            "doubleSided" : true,
            "name" : "Bark",
            "pbrMetallicRoughness" : {
                "baseColorTexture" : {
                    "index" : 0
                },
                "roughnessFactor" : 0.5527864098548889
            }
        },
        {
            "alphaCutoff" : 0.5,
            "alphaMode" : "MASK",
            "doubleSided" : true,
            "name" : "Tree_Leaves_yellow",
            "pbrMetallicRoughness" : {
                "baseColorTexture" : {
                    "index" : 1
                },
                "roughnessFactor" : 0.5527864098548889
            }
        }
    ],
    "meshes" : [
        {
            "name" : "Cylinder.002",
            "primitives" : [
                {
                    "attributes" : {
                        "POSITION" : 0,
                        "NORMAL" : 1,
                        "TEXCOORD_0" : 2
                    },
                    "indices" : 3,
                    "material" : 0
                },
                {
                    "attributes" : {
                        "POSITION" : 4,
                        "NORMAL" : 5,
                        "TEXCOORD_0" : 6
                    },
                    "indices" : 7,
                    "material" : 1
                }
            ]
        }
    ],
    "textures" : [
        {
            "sampler" : 0,
            "source" : 0
        },
        {
            "sampler" : 0,
            "source" : 1
        }
    ],
    "images" : [
        {
            "bufferView" : 4,
            "mimeType" : "image/png",
            "name" : "Tree_Bark"
        },
        {
            "bufferView" : 9,
            "mimeType" : "image/png",
            "name" : "Leaves_Orange"
        }
    ],
    "accessors" : [
        {
            "bufferView" : 0,
            "componentType" : 5126,
            "count" : 548,
            "max" : [
                0.5064232349395752,
                4.346673488616943,
                1.4930649995803833
            ],
            "min" : [
                -2.8334267139434814,
                -0.0013798798900097609,
                -2.35207462310791
            ],
            "type" : "VEC3"
        },
        {
            "bufferView" : 1,
            "componentType" : 5126,
            "count" : 548,
            "type" : "VEC3"
        },
        {
            "bufferView" : 2,
            "componentType" : 5126,
            "count" : 548,
            "type" : "VEC2"
        },
        {
            "bufferView" : 3,
            "componentType" : 5123,
            "count" : 2268,
            "type" : "SCALAR"
        },
        {
            "bufferView" : 5,
            "componentType" : 5126,
            "count" : 323,
            "max" : [
                0.9950597286224365,
                4.318568706512451,
                1.6284263134002686
            ],
            "min" : [
                -3.2856335639953613,
                1.5189793109893799,
                -1.7500083446502686
            ],
            "type" : "VEC3"
        },
        {
            "bufferView" : 6,
            "componentType" : 5126,
            "count" : 323,
            "type" : "VEC3"
        },
        {
            "bufferView" : 7,
            "componentType" : 5126,
            "count" : 323,
            "type" : "VEC2"
        },
        {
            "bufferView" : 8,
            "componentType" : 5123,
            "count" : 1368,
            "type" : "SCALAR"
        }
    ],
    "bufferViews" : [
        {
            "buffer" : 0,
            "byteLength" : 6576,
            "byteOffset" : 0
        },
        {
            "buffer" : 0,
            "byteLength" : 6576,
            "byteOffset" : 6576
        },
        {
            "buffer" : 0,
            "byteLength" : 4384,
            "byteOffset" : 13152
        },
        {
            "buffer" : 0,
            "byteLength" : 4536,
            "byteOffset" : 17536
        },
        {
            "buffer" : 0,
            "byteLength" : 500026,
            "byteOffset" : 22072
        },
        {
            "buffer" : 0,
            "byteLength" : 3876,
            "byteOffset" : 522100
        },
        {
            "buffer" : 0,
            "byteLength" : 3876,
            "byteOffset" : 525976
        },
        {
            "buffer" : 0,
            "byteLength" : 2584,
            "byteOffset" : 529852
        },
        {
            "buffer" : 0,
            "byteLength" : 2736,
            "byteOffset" : 532436
        },
        {
            "buffer" : 0,
            "byteLength" : 142804,
            "byteOffset" : 535172
        }
    ],
    "samplers" : [
        {
            "magFilter" : 9729,
            "minFilter" : 9987
        }
    ],
    "buffers" : [
        {
            "byteLength" : 677976,
            "uri" : "data:application/octet-stream;base64,"
        }
    ]
}
