{
    "asset" : {
        "generator" : "Khronos glTF Blender I/O v1.7.33",
        "version" : "2.0"
    },
    "scene" : 0,
    "scenes" : [
        {
            "name" : "Scene",
            "nodes" : [
                0
            ]
        }
    ],
    "nodes" : [
        {
            "mesh" : 0,
            "name" : "Pine_3"
        }
    ],
    "materials" : [
        {
            "doubleSided" : true,
            "name" : "Bark",
            "pbrMetallicRoughness" : {
                "baseColorTexture" : {
                    "index" : 0
                },
                "metallicFactor" : 0,
                "roughnessFactor" : 0.6732679605484009
            }
        },
        {
            "alphaCutoff" : 0.5,
            "alphaMode" : "MASK",
            "doubleSided" : true,
            "name" : "Pine_Leaves.004",
            "pbrMetallicRoughness" : {
                "baseColorTexture" : {
                    "index" : 1
                },
                "roughnessFactor" : 0.5527864098548889
            }
        }
    ],
    "meshes" : [
        {
            "name" : "Plane.062",
            "primitives" : [
                {
                    "attributes" : {
                        "POSITION" : 0,
                        "NORMAL" : 1,
                        "TEXCOORD_0" : 2
                    },
                    "indices" : 3,
                    "material" : 0
                },
                {
                    "attributes" : {
                        "POSITION" : 4,
                        "NORMAL" : 5,
                        "TEXCOORD_0" : 6
                    },
                    "indices" : 7,
                    "material" : 1
                }
            ]
        }
    ],
    "textures" : [
        {
            "sampler" : 0,
            "source" : 0
        },
        {
            "sampler" : 0,
            "source" : 1
        }
    ],
    "images" : [
        {
            "bufferView" : 4,
            "mimeType" : "image/jpeg",
            "name" : "Tree_Bark"
        },
        {
            "bufferView" : 9,
            "mimeType" : "image/png",
            "name" : "Pine_Leaves"
        }
    ],
    "accessors" : [
        {
            "bufferView" : 0,
            "componentType" : 5126,
            "count" : 98,
            "max" : [
                0.21990005671977997,
                8.022987365722656,
                0.24113328754901886
            ],
            "min" : [
                -1.0014033317565918,
                -0.0026934866327792406,
                -0.2538248896598816
            ],
            "type" : "VEC3"
        },
        {
            "bufferView" : 1,
            "componentType" : 5126,
            "count" : 98,
            "type" : "VEC3"
        },
        {
            "bufferView" : 2,
            "componentType" : 5126,
            "count" : 98,
            "type" : "VEC2"
        },
        {
            "bufferView" : 3,
            "componentType" : 5123,
            "count" : 444,
            "type" : "SCALAR"
        },
        {
            "bufferView" : 5,
            "componentType" : 5126,
            "count" : 384,
            "max" : [
                3.1169216632843018,
                7.970347881317139,
                3.8158159255981445
            ],
            "min" : [
                -3.765972137451172,
                -0.07409725338220596,
                -3.4778988361358643
            ],
            "type" : "VEC3"
        },
        {
            "bufferView" : 6,
            "componentType" : 5126,
            "count" : 384,
            "type" : "VEC3"
        },
        {
            "bufferView" : 7,
            "componentType" : 5126,
            "count" : 384,
            "type" : "VEC2"
        },
        {
            "bufferView" : 8,
            "componentType" : 5123,
            "count" : 1152,
            "type" : "SCALAR"
        }
    ],
    "bufferViews" : [
        {
            "buffer" : 0,
            "byteLength" : 1176,
            "byteOffset" : 0
        },
        {
            "buffer" : 0,
            "byteLength" : 1176,
            "byteOffset" : 1176
        },
        {
            "buffer" : 0,
            "byteLength" : 784,
            "byteOffset" : 2352
        },
        {
            "buffer" : 0,
            "byteLength" : 888,
            "byteOffset" : 3136
        },
        {
            "buffer" : 0,
            "byteLength" : 240999,
            "byteOffset" : 4024
        },
        {
            "buffer" : 0,
            "byteLength" : 4608,
            "byteOffset" : 245024
        },
        {
            "buffer" : 0,
            "byteLength" : 4608,
            "byteOffset" : 249632
        },
        {
            "buffer" : 0,
            "byteLength" : 3072,
            "byteOffset" : 254240
        },
        {
            "buffer" : 0,
            "byteLength" : 2304,
            "byteOffset" : 257312
        },
        {
            "buffer" : 0,
            "byteLength" : 124813,
            "byteOffset" : 259616
        }
    ],
    "samplers" : [
        {
            "magFilter" : 9729,
            "minFilter" : 9987
        }
    ],
    "buffers" : [
        {
            "byteLength" : 384432,
            "uri" : "data:application/octet-stream;base64,"
        }
    ]
}
