{
    "asset" : {
        "generator" : "Khronos glTF Blender I/O v1.7.33",
        "version" : "2.0"
    },
    "scene" : 0,
    "scenes" : [
        {
            "name" : "Scene",
            "nodes" : [
                0
            ]
        }
    ],
    "nodes" : [
        {
            "mesh" : 0,
            "name" : "Tree_1_Cylinder.037",
            "rotation" : [
                0.7071068286895752,
                0,
                0,
                0.7071068286895752
            ]
        }
    ],
    "materials" : [
        {
            "doubleSided" : true,
            "name" : "Bark",
            "pbrMetallicRoughness" : {
                "baseColorTexture" : {
                    "index" : 0
                },
                "metallicFactor" : 0,
                "roughnessFactor" : 0.6732679605484009
            }
        },
        {
            "alphaCutoff" : 0.5,
            "alphaMode" : "MASK",
            "doubleSided" : true,
            "name" : "Tree_Leaves",
            "pbrMetallicRoughness" : {
                "baseColorTexture" : {
                    "index" : 1
                },
                "metallicFactor" : 0,
                "roughnessFactor" : 0.6732679605484009
            }
        }
    ],
    "meshes" : [
        {
            "name" : "Tree_1_Cylinder.037",
            "primitives" : [
                {
                    "attributes" : {
                        "POSITION" : 0,
                        "NORMAL" : 1,
                        "TEXCOORD_0" : 2
                    },
                    "indices" : 3,
                    "material" : 0
                },
                {
                    "attributes" : {
                        "POSITION" : 4,
                        "NORMAL" : 5,
                        "TEXCOORD_0" : 6
                    },
                    "indices" : 7,
                    "material" : 1
                }
            ]
        }
    ],
    "textures" : [
        {
            "sampler" : 0,
            "source" : 0
        },
        {
            "sampler" : 0,
            "source" : 1
        }
    ],
    "images" : [
        {
            "bufferView" : 4,
            "mimeType" : "image/jpeg",
            "name" : "Tree_Bark"
        },
        {
            "bufferView" : 9,
            "mimeType" : "image/png",
            "name" : "Tree_Leaves"
        }
    ],
    "accessors" : [
        {
            "bufferView" : 0,
            "componentType" : 5126,
            "count" : 400,
            "max" : [
                0.5404689908027649,
                1.0847959518432617,
                -0.011172999627888203
            ],
            "min" : [
                -1.903028964996338,
                -0.4341590106487274,
                -5.1822991371154785
            ],
            "type" : "VEC3"
        },
        {
            "bufferView" : 1,
            "componentType" : 5126,
            "count" : 400,
            "type" : "VEC3"
        },
        {
            "bufferView" : 2,
            "componentType" : 5126,
            "count" : 400,
            "type" : "VEC2"
        },
        {
            "bufferView" : 3,
            "componentType" : 5123,
            "count" : 1332,
            "type" : "SCALAR"
        },
        {
            "bufferView" : 5,
            "componentType" : 5126,
            "count" : 255,
            "max" : [
                1.805098056793213,
                2.05914306640625,
                -3.1789889335632324
            ],
            "min" : [
                -2.3328819274902344,
                -2.0712060928344727,
                -5.555437088012695
            ],
            "type" : "VEC3"
        },
        {
            "bufferView" : 6,
            "componentType" : 5126,
            "count" : 255,
            "type" : "VEC3"
        },
        {
            "bufferView" : 7,
            "componentType" : 5126,
            "count" : 255,
            "type" : "VEC2"
        },
        {
            "bufferView" : 8,
            "componentType" : 5123,
            "count" : 1080,
            "type" : "SCALAR"
        }
    ],
    "bufferViews" : [
        {
            "buffer" : 0,
            "byteLength" : 4800,
            "byteOffset" : 0
        },
        {
            "buffer" : 0,
            "byteLength" : 4800,
            "byteOffset" : 4800
        },
        {
            "buffer" : 0,
            "byteLength" : 3200,
            "byteOffset" : 9600
        },
        {
            "buffer" : 0,
            "byteLength" : 2664,
            "byteOffset" : 12800
        },
        {
            "buffer" : 0,
            "byteLength" : 240999,
            "byteOffset" : 15464
        },
        {
            "buffer" : 0,
            "byteLength" : 3060,
            "byteOffset" : 256464
        },
        {
            "buffer" : 0,
            "byteLength" : 3060,
            "byteOffset" : 259524
        },
        {
            "buffer" : 0,
            "byteLength" : 2040,
            "byteOffset" : 262584
        },
        {
            "buffer" : 0,
            "byteLength" : 2160,
            "byteOffset" : 264624
        },
        {
            "buffer" : 0,
            "byteLength" : 129425,
            "byteOffset" : 266784
        }
    ],
    "samplers" : [
        {
            "magFilter" : 9729,
            "minFilter" : 9987
        }
    ],
    "buffers" : [
        {
            "byteLength" : 396212,
            "uri" : "data:application/octet-stream;base64,"
        }
    ]
}
