{
	"asset":{
		"generator":"Khronos glTF Blender I/O v3.6.27",
		"version":"2.0"
	},
	"scene":0,
	"scenes":[
		{
			"name":"Scene",
			"nodes":[
				0
			]
		}
	],
	"nodes":[
		{
			"mesh":0,
			"name":"Cube",
			"rotation":[
				-0.47556084394454956,
				0,
				0,
				0.8796828389167786
			],
			"scale":[
				0.06999999284744263,
				0.06999999284744263,
				0.06999999284744263
			]
		}
	],
	"materials":[
		{
			"doubleSided":true,
			"name":"Material",
			"pbrMetallicRoughness":{
				"baseColorFactor":[
					0.18446893990039825,
					0.06384078413248062,
					0.012150607071816921,
					1
				],
				"metallicFactor":0,
				"roughnessFactor":0.5
			}
		},
		{
			"doubleSided":true,
			"name":"Yellow",
			"pbrMetallicRoughness":{
				"baseColorFactor":[
					0.8000000715255737,
					0.7151351571083069,
					0,
					1
				],
				"metallicFactor":0,
				"roughnessFactor":0.5
			}
		}
	],
	"meshes":[
		{
			"name":"Cube",
			"primitives":[
				{
					"attributes":{
						"POSITION":0,
						"NORMAL":1,
						"TEXCOORD_0":2
					},
					"indices":3,
					"material":0
				},
				{
					"attributes":{
						"POSITION":4,
						"NORMAL":5,
						"TEXCOORD_0":6
					},
					"indices":7,
					"material":1
				}
			]
		}
	],
	"accessors":[
		{
			"bufferView":0,
			"componentType":5126,
			"count":20,
			"max":[
				0.31282666325569153,
				6.648001670837402,
				2.9333627223968506
			],
			"min":[
				-0.329994261264801,
				4.939372539520264,
				1.6756837368011475
			],
			"type":"VEC3"
		},
		{
			"bufferView":1,
			"componentType":5126,
			"count":20,
			"type":"VEC3"
		},
		{
			"bufferView":2,
			"componentType":5126,
			"count":20,
			"type":"VEC2"
		},
		{
			"bufferView":3,
			"componentType":5123,
			"count":30,
			"type":"SCALAR"
		},
		{
			"bufferView":4,
			"componentType":5126,
			"count":100,
			"max":[
				1.089815616607666,
				5.216851711273193,
				2.2462644577026367
			],
			"min":[
				-1.089815616607666,
				-3.6901495456695557,
				-1.0802748203277588
			],
			"type":"VEC3"
		},
		{
			"bufferView":5,
			"componentType":5126,
			"count":100,
			"type":"VEC3"
		},
		{
			"bufferView":6,
			"componentType":5126,
			"count":100,
			"type":"VEC2"
		},
		{
			"bufferView":7,
			"componentType":5123,
			"count":150,
			"type":"SCALAR"
		}
	],
	"bufferViews":[
		{
			"buffer":0,
			"byteLength":240,
			"byteOffset":0,
			"target":34962
		},
		{
			"buffer":0,
			"byteLength":240,
			"byteOffset":240,
			"target":34962
		},
		{
			"buffer":0,
			"byteLength":160,
			"byteOffset":480,
			"target":34962
		},
		{
			"buffer":0,
			"byteLength":60,
			"byteOffset":640,
			"target":34963
		},
		{
			"buffer":0,
			"byteLength":1200,
			"byteOffset":700,
			"target":34962
		},
		{
			"buffer":0,
			"byteLength":1200,
			"byteOffset":1900,
			"target":34962
		},
		{
			"buffer":0,
			"byteLength":800,
			"byteOffset":3100,
			"target":34962
		},
		{
			"buffer":0,
			"byteLength":300,
			"byteOffset":3900,
			"target":34963
		}
	],
	"buffers":[
		{
			"byteLength":4200,
			"uri":"data:application/octet-stream;base64,"
		}
	]
}
