{
	"asset":{
		"generator":"Khronos glTF Blender I/O v3.6.6",
		"version":"2.0"
	},
	"scene":0,
	"scenes":[
		{
			"name":"Scene",
			"nodes":[
				2,
				3,
				4,
				5,
				6
			]
		}
	],
	"nodes":[
		{
			"mesh":0,
			"name":"cube",
			"scale":[
				1,
				1.545326828956604,
				1
			],
			"translation":[
				0,
				0.03515625,
				-0.018750011920928955
			]
		},
		{
			"mesh":1,
			"name":"cube.001",
			"rotation":[
				0.27059805393218994,
				0.27059805393218994,
				0.6532815098762512,
				0.6532815098762512
			],
			"scale":[
				1.216633915901184,
				1.9325459003448486,
				1.932545781135559
			],
			"translation":[
				-0.0004441775381565094,
				0.031249994412064552,
				-0.26830583810806274
			]
		},
		{
			"children":[
				0,
				1
			],
			"name":"Node_2"
		},
		{
			"mesh":2,
			"name":"Cube",
			"scale":[
				0.0167071595788002,
				0.05480014160275459,
				0.05480014160275459
			],
			"translation":[
				0,
				0.09788720309734344,
				0.18554191291332245
			]
		},
		{
			"mesh":3,
			"name":"Cube.001",
			"rotation":[
				0,
				0,
				0.7071068286895752,
				0.7071068286895752
			],
			"scale":[
				0.0167071595788002,
				0.05480014160275459,
				0.05480014160275459
			],
			"translation":[
				-0.08127495646476746,
				0.03364204615354538,
				0.18554191291332245
			]
		},
		{
			"mesh":4,
			"name":"Cube.002",
			"rotation":[
				0,
				0,
				-0.9999957084655762,
				0.0029317536391317844
			],
			"scale":[
				0.0167071595788002,
				0.05480014160275459,
				0.05480014160275459
			],
			"translation":[
				0.0013111280277371407,
				-0.01945853978395462,
				0.18554191291332245
			]
		},
		{
			"mesh":5,
			"name":"Cube.003",
			"rotation":[
				0,
				0,
				-0.7071066498756409,
				0.70710688829422
			],
			"scale":[
				0.0167071595788002,
				0.05480014160275459,
				0.05480014160275459
			],
			"translation":[
				0.08271404355764389,
				0.03364204615354538,
				0.18554191291332245
			]
		}
	],
	"materials":[
		{
			"alphaCutoff":0.05000000074505806,
			"alphaMode":"MASK",
			"doubleSided":true,
			"name":"Material_0",
			"pbrMetallicRoughness":{
				"baseColorTexture":{
					"index":0
				},
				"metallicFactor":0
			}
		}
	],
	"meshes":[
		{
			"name":"Mesh_0",
			"primitives":[
				{
					"attributes":{
						"POSITION":0,
						"TEXCOORD_0":1,
						"NORMAL":2
					},
					"indices":3,
					"material":0
				}
			]
		},
		{
			"name":"Mesh_1",
			"primitives":[
				{
					"attributes":{
						"POSITION":4,
						"TEXCOORD_0":5,
						"NORMAL":6
					},
					"indices":3,
					"material":0
				}
			]
		},
		{
			"name":"Cube.001",
			"primitives":[
				{
					"attributes":{
						"POSITION":7,
						"TEXCOORD_0":8,
						"NORMAL":9
					},
					"indices":10
				}
			]
		},
		{
			"name":"Cube.002",
			"primitives":[
				{
					"attributes":{
						"POSITION":11,
						"TEXCOORD_0":12,
						"NORMAL":13
					},
					"indices":10
				}
			]
		},
		{
			"name":"Cube.003",
			"primitives":[
				{
					"attributes":{
						"POSITION":14,
						"TEXCOORD_0":15,
						"NORMAL":16
					},
					"indices":10
				}
			]
		},
		{
			"name":"Cube.004",
			"primitives":[
				{
					"attributes":{
						"POSITION":17,
						"TEXCOORD_0":18,
						"NORMAL":19
					},
					"indices":10
				}
			]
		}
	],
	"textures":[
		{
			"sampler":0,
			"source":0
		}
	],
	"images":[
		{
			"bufferView":4,
			"mimeType":"image/png",
			"name":"Image_0"
		}
	],
	"accessors":[
		{
			"bufferView":0,
			"componentType":5126,
			"count":24,
			"max":[
				0.03125,
				0.01171875,
				0.28125
			],
			"min":[
				-0.03125,
				-0.01171875,
				-0.28125
			],
			"type":"VEC3"
		},
		{
			"bufferView":1,
			"componentType":5126,
			"count":24,
			"type":"VEC2"
		},
		{
			"bufferView":2,
			"componentType":5126,
			"count":24,
			"type":"VEC3"
		},
		{
			"bufferView":3,
			"componentType":5123,
			"count":36,
			"type":"SCALAR"
		},
		{
			"bufferView":5,
			"componentType":5126,
			"count":24,
			"max":[
				0.023524317890405655,
				0.04465332627296448,
				0.04465333744883537
			],
			"min":[
				-0.023524317890405655,
				-0.044653329998254776,
				-0.04465331882238388
			],
			"type":"VEC3"
		},
		{
			"bufferView":6,
			"componentType":5126,
			"count":24,
			"type":"VEC2"
		},
		{
			"bufferView":7,
			"componentType":5126,
			"count":24,
			"type":"VEC3"
		},
		{
			"bufferView":8,
			"componentType":5126,
			"count":24,
			"max":[
				1,
				0.2624979615211487,
				2.096566677093506
			],
			"min":[
				-1,
				-1,
				-1
			],
			"type":"VEC3"
		},
		{
			"bufferView":9,
			"componentType":5126,
			"count":24,
			"type":"VEC2"
		},
		{
			"bufferView":10,
			"componentType":5126,
			"count":24,
			"type":"VEC3"
		},
		{
			"bufferView":11,
			"componentType":5123,
			"count":36,
			"type":"SCALAR"
		},
		{
			"bufferView":12,
			"componentType":5126,
			"count":24,
			"max":[
				1,
				0.2624979615211487,
				2.096566677093506
			],
			"min":[
				-1,
				-1,
				-1
			],
			"type":"VEC3"
		},
		{
			"bufferView":13,
			"componentType":5126,
			"count":24,
			"type":"VEC2"
		},
		{
			"bufferView":14,
			"componentType":5126,
			"count":24,
			"type":"VEC3"
		},
		{
			"bufferView":15,
			"componentType":5126,
			"count":24,
			"max":[
				1,
				0.2624979615211487,
				2.096566677093506
			],
			"min":[
				-1,
				-1,
				-1
			],
			"type":"VEC3"
		},
		{
			"bufferView":16,
			"componentType":5126,
			"count":24,
			"type":"VEC2"
		},
		{
			"bufferView":17,
			"componentType":5126,
			"count":24,
			"type":"VEC3"
		},
		{
			"bufferView":18,
			"componentType":5126,
			"count":24,
			"max":[
				1,
				0.2624979615211487,
				2.096566677093506
			],
			"min":[
				-1,
				-1,
				-1
			],
			"type":"VEC3"
		},
		{
			"bufferView":19,
			"componentType":5126,
			"count":24,
			"type":"VEC2"
		},
		{
			"bufferView":20,
			"componentType":5126,
			"count":24,
			"type":"VEC3"
		}
	],
	"bufferViews":[
		{
			"buffer":0,
			"byteLength":288,
			"byteOffset":0,
			"target":34962
		},
		{
			"buffer":0,
			"byteLength":192,
			"byteOffset":288,
			"target":34962
		},
		{
			"buffer":0,
			"byteLength":288,
			"byteOffset":480,
			"target":34962
		},
		{
			"buffer":0,
			"byteLength":72,
			"byteOffset":768,
			"target":34963
		},
		{
			"buffer":0,
			"byteLength":124,
			"byteOffset":840
		},
		{
			"buffer":0,
			"byteLength":288,
			"byteOffset":964,
			"target":34962
		},
		{
			"buffer":0,
			"byteLength":192,
			"byteOffset":1252,
			"target":34962
		},
		{
			"buffer":0,
			"byteLength":288,
			"byteOffset":1444,
			"target":34962
		},
		{
			"buffer":0,
			"byteLength":288,
			"byteOffset":1732,
			"target":34962
		},
		{
			"buffer":0,
			"byteLength":192,
			"byteOffset":2020,
			"target":34962
		},
		{
			"buffer":0,
			"byteLength":288,
			"byteOffset":2212,
			"target":34962
		},
		{
			"buffer":0,
			"byteLength":72,
			"byteOffset":2500,
			"target":34963
		},
		{
			"buffer":0,
			"byteLength":288,
			"byteOffset":2572,
			"target":34962
		},
		{
			"buffer":0,
			"byteLength":192,
			"byteOffset":2860,
			"target":34962
		},
		{
			"buffer":0,
			"byteLength":288,
			"byteOffset":3052,
			"target":34962
		},
		{
			"buffer":0,
			"byteLength":288,
			"byteOffset":3340,
			"target":34962
		},
		{
			"buffer":0,
			"byteLength":192,
			"byteOffset":3628,
			"target":34962
		},
		{
			"buffer":0,
			"byteLength":288,
			"byteOffset":3820,
			"target":34962
		},
		{
			"buffer":0,
			"byteLength":288,
			"byteOffset":4108,
			"target":34962
		},
		{
			"buffer":0,
			"byteLength":192,
			"byteOffset":4396,
			"target":34962
		},
		{
			"buffer":0,
			"byteLength":288,
			"byteOffset":4588,
			"target":34962
		}
	],
	"samplers":[
		{
			"magFilter":9728,
			"minFilter":9984,
			"wrapS":33071,
			"wrapT":33071
		}
	],
	"buffers":[
		{
			"byteLength":4876,
			"uri":"data:application/octet-stream;base64,"
		}
	]
}
